<svg xmlns="http://www.w3.org/2000/svg" xmlns:xlink="http://www.w3.org/1999/xlink" width="52" height="52" viewBox="0 0 52 52"><g id="surface26358399"><path style="stroke:none;fill-rule:nonzero;fill:#fff;fill-opacity:1" d="M 47.867188 37.890625 C 46.671875 40.539062 46.101562 41.726562 44.5625 44.0625 C 42.421875 47.335938 39.390625 51.414062 35.640625 51.4375 C 32.3125 51.46875 31.453125 49.265625 26.929688 49.304688 C 22.40625 49.320312 21.460938 51.476562 18.125 51.445312 C 14.382812 51.414062 11.515625 47.734375 9.367188 44.476562 C 3.359375 35.328125 2.726562 24.601562 6.4375 18.898438 C 9.0625 14.851562 13.21875 12.476562 17.125 12.476562 C 21.09375 12.476562 23.59375 14.65625 26.882812 14.65625 C 30.070312 14.65625 32.007812 12.46875 36.609375 12.46875 C 40.078125 12.46875 43.757812 14.359375 46.382812 17.632812 C 37.789062 22.335938 39.1875 34.609375 47.867188 37.890625 Z M 33.117188 8.8125 C 34.789062 6.671875 36.054688 3.640625 35.601562 0.554688 C 32.867188 0.742188 29.679688 2.484375 27.8125 4.734375 C 26.125 6.789062 24.726562 9.84375 25.273438 12.796875 C 28.25 12.890625 31.328125 11.117188 33.117188 8.8125 Z M 33.117188 8.8125"/></g></svg>