<svg xmlns="http://www.w3.org/2000/svg" xmlns:xlink="http://www.w3.org/1999/xlink" width="104" height="104" viewBox="0 0 104 104"><g id="surface26449755"><path style="stroke:none;fill-rule:nonzero;fill:#fff;fill-opacity:1" d="M 95.734375 75.78125 C 93.34375 81.078125 92.203125 83.453125 89.125 88.125 C 84.84375 94.671875 78.78125 102.828125 71.28125 102.875 C 64.625 102.9375 62.90625 98.53125 53.859375 98.609375 C 44.8125 98.640625 42.921875 102.953125 36.25 102.890625 C 28.765625 102.828125 23.03125 95.46875 18.734375 88.953125 C 6.71875 70.65625 5.453125 49.203125 12.875 37.796875 C 18.125 29.703125 26.4375 24.953125 34.25 24.953125 C 42.1875 24.953125 47.1875 29.3125 53.765625 29.3125 C 60.140625 29.3125 64.015625 24.9375 73.21875 24.9375 C 80.15625 24.9375 87.515625 28.71875 92.765625 35.265625 C 75.578125 44.671875 78.375 69.21875 95.734375 75.78125 Z M 66.234375 17.625 C 69.578125 13.34375 72.109375 7.28125 71.203125 1.109375 C 65.734375 1.484375 59.359375 4.96875 55.625 9.46875 C 52.25 13.578125 49.453125 19.6875 50.546875 25.59375 C 56.5 25.78125 62.65625 22.234375 66.234375 17.625 Z M 66.234375 17.625"/></g></svg>