<svg width="0" height="0" class="hidden"><symbol xmlns="http://www.w3.org/2000/svg" id="alert-circle" fill="none" stroke="currentColor" stroke-linecap="round" stroke-linejoin="round" stroke-width="2" viewBox="0 0 24 24"><circle cx="12" cy="12" r="10"/><line x1="12" x2="12" y1="8" y2="12"/><line x1="12" x2="12.01" y1="16" y2="16"/></symbol><symbol xmlns="http://www.w3.org/2000/svg" id="chevron-left" fill="none" stroke="currentColor" stroke-linecap="round" stroke-linejoin="round" stroke-width="2" viewBox="0 0 24 24"><polyline points="15 18 9 12 15 6"/></symbol><symbol xmlns="http://www.w3.org/2000/svg" id="clock" fill="none" stroke="currentColor" stroke-linecap="round" stroke-linejoin="round" stroke-width="2" viewBox="0 0 24 24"><circle cx="12" cy="12" r="10"/><polyline points="12 6 12 12 16 14"/></symbol><symbol xmlns="http://www.w3.org/2000/svg" id="coffee" fill="none" stroke="currentColor" stroke-linecap="round" stroke-linejoin="round" stroke-width="2" viewBox="0 0 24 24"><path d="M18 8h1a4 4 0 0 1 0 8h-1"/><path d="M2 8h16v9a4 4 0 0 1-4 4H6a4 4 0 0 1-4-4V8z"/><line x1="6" x2="6" y1="1" y2="4"/><line x1="10" x2="10" y1="1" y2="4"/><line x1="14" x2="14" y1="1" y2="4"/></symbol><symbol xmlns="http://www.w3.org/2000/svg" id="list" fill="none" stroke="currentColor" stroke-linecap="round" stroke-linejoin="round" stroke-width="2" viewBox="0 0 24 24"><line x1="8" x2="21" y1="6" y2="6"/><line x1="8" x2="21" y1="12" y2="12"/><line x1="8" x2="21" y1="18" y2="18"/><line x1="3" x2="3.01" y1="6" y2="6"/><line x1="3" x2="3.01" y1="12" y2="12"/><line x1="3" x2="3.01" y1="18" y2="18"/></symbol><symbol xmlns="http://www.w3.org/2000/svg" id="package" fill="none" stroke="currentColor" stroke-linecap="round" stroke-linejoin="round" stroke-width="2" viewBox="0 0 24 24"><line x1="16.5" x2="7.5" y1="9.4" y2="4.21"/><path d="M21 16V8a2 2 0 0 0-1-1.73l-7-4a2 2 0 0 0-2 0l-7 4A2 2 0 0 0 3 8v8a2 2 0 0 0 1 1.73l7 4a2 2 0 0 0 2 0l7-4A2 2 0 0 0 21 16z"/><polyline points="3.27 6.96 12 12.01 20.73 6.96"/><line x1="12" x2="12" y1="22.08" y2="12"/></symbol><symbol xmlns="http://www.w3.org/2000/svg" id="plus" fill="none" stroke="currentColor" stroke-linecap="round" stroke-linejoin="round" stroke-width="2" viewBox="0 0 24 24"><line x1="12" x2="12" y1="5" y2="19"/><line x1="5" x2="19" y1="12" y2="12"/></symbol><symbol xmlns="http://www.w3.org/2000/svg" id="share" fill="none" stroke="currentColor" stroke-linecap="round" stroke-linejoin="round" stroke-width="2" viewBox="0 0 24 24"><circle cx="18" cy="5" r="3"/><circle cx="6" cy="12" r="3"/><circle cx="18" cy="19" r="3"/><line x1="8.59" x2="15.42" y1="13.51" y2="17.49"/><line x1="15.41" x2="8.59" y1="6.51" y2="10.49"/></symbol><symbol id="sprite" viewBox="0 0 0 0"><symbol xmlns="http://www.w3.org/2000/svg" id="alert-circle" fill="none" stroke="currentColor" stroke-linecap="round" stroke-linejoin="round" stroke-width="2" viewBox="0 0 24 24"><circle cx="12" cy="12" r="10"/><line x1="12" x2="12" y1="8" y2="12"/><line x1="12" x2="12.01" y1="16" y2="16"/></symbol><symbol xmlns="http://www.w3.org/2000/svg" id="chevron-left" fill="none" stroke="currentColor" stroke-linecap="round" stroke-linejoin="round" stroke-width="2" viewBox="0 0 24 24"><polyline points="15 18 9 12 15 6"/></symbol><symbol xmlns="http://www.w3.org/2000/svg" id="clock" fill="none" stroke="currentColor" stroke-linecap="round" stroke-linejoin="round" stroke-width="2" viewBox="0 0 24 24"><circle cx="12" cy="12" r="10"/><polyline points="12 6 12 12 16 14"/></symbol><symbol xmlns="http://www.w3.org/2000/svg" id="list" fill="none" stroke="currentColor" stroke-linecap="round" stroke-linejoin="round" stroke-width="2" viewBox="0 0 24 24"><line x1="8" x2="21" y1="6" y2="6"/><line x1="8" x2="21" y1="12" y2="12"/><line x1="8" x2="21" y1="18" y2="18"/><line x1="3" x2="3.01" y1="6" y2="6"/><line x1="3" x2="3.01" y1="12" y2="12"/><line x1="3" x2="3.01" y1="18" y2="18"/></symbol><symbol xmlns="http://www.w3.org/2000/svg" id="plus" fill="none" stroke="currentColor" stroke-linecap="round" stroke-linejoin="round" stroke-width="2" viewBox="0 0 24 24"><line x1="12" x2="12" y1="5" y2="19"/><line x1="5" x2="19" y1="12" y2="12"/></symbol><symbol xmlns="http://www.w3.org/2000/svg" id="share" fill="none" stroke="currentColor" stroke-linecap="round" stroke-linejoin="round" stroke-width="2" viewBox="0 0 24 24"><circle cx="18" cy="5" r="3"/><circle cx="6" cy="12" r="3"/><circle cx="18" cy="19" r="3"/><line x1="8.59" x2="15.42" y1="13.51" y2="17.49"/><line x1="15.41" x2="8.59" y1="6.51" y2="10.49"/></symbol><symbol id="sprite" viewBox="0 0 0 0"><symbol xmlns="http://www.w3.org/2000/svg" id="alert-circle" fill="none" stroke="currentColor" stroke-linecap="round" stroke-linejoin="round" stroke-width="2" viewBox="0 0 24 24"><circle cx="12" cy="12" r="10"/><line x1="12" x2="12" y1="8" y2="12"/><line x1="12" x2="12.01" y1="16" y2="16"/></symbol><symbol xmlns="http://www.w3.org/2000/svg" id="clock" fill="none" stroke="currentColor" stroke-linecap="round" stroke-linejoin="round" stroke-width="2" viewBox="0 0 24 24"><circle cx="12" cy="12" r="10"/><polyline points="12 6 12 12 16 14"/></symbol><symbol xmlns="http://www.w3.org/2000/svg" id="plus" fill="none" stroke="currentColor" stroke-linecap="round" stroke-linejoin="round" stroke-width="2" viewBox="0 0 24 24"><line x1="12" x2="12" y1="5" y2="19"/><line x1="5" x2="19" y1="12" y2="12"/></symbol><symbol xmlns="http://www.w3.org/2000/svg" id="trash" fill="none" stroke="currentColor" stroke-linecap="round" stroke-linejoin="round" stroke-width="2" viewBox="0 0 24 24"><polyline points="3 6 5 6 21 6"/><path d="M19 6v14a2 2 0 0 1-2 2H7a2 2 0 0 1-2-2V6m3 0V4a2 2 0 0 1 2-2h4a2 2 0 0 1 2 2v2"/><line x1="10" x2="10" y1="11" y2="17"/><line x1="14" x2="14" y1="11" y2="17"/></symbol><symbol xmlns="http://www.w3.org/2000/svg" id="x" fill="none" stroke="currentColor" stroke-linecap="round" stroke-linejoin="round" stroke-width="2" viewBox="0 0 24 24"><line x1="18" x2="6" y1="6" y2="18"/><line x1="6" x2="18" y1="6" y2="18"/></symbol><symbol xmlns="http://www.w3.org/2000/svg" id="x-circle" fill="none" stroke="currentColor" stroke-linecap="round" stroke-linejoin="round" stroke-width="2" viewBox="0 0 24 24"><circle cx="12" cy="12" r="10"/><line x1="15" x2="9" y1="9" y2="15"/><line x1="9" x2="15" y1="9" y2="15"/></symbol></symbol><symbol xmlns="http://www.w3.org/2000/svg" id="trash" fill="none" stroke="currentColor" stroke-linecap="round" stroke-linejoin="round" stroke-width="2" viewBox="0 0 24 24"><polyline points="3 6 5 6 21 6"/><path d="M19 6v14a2 2 0 0 1-2 2H7a2 2 0 0 1-2-2V6m3 0V4a2 2 0 0 1 2-2h4a2 2 0 0 1 2 2v2"/><line x1="10" x2="10" y1="11" y2="17"/><line x1="14" x2="14" y1="11" y2="17"/></symbol><symbol xmlns="http://www.w3.org/2000/svg" id="x" fill="none" stroke="currentColor" stroke-linecap="round" stroke-linejoin="round" stroke-width="2" viewBox="0 0 24 24"><line x1="18" x2="6" y1="6" y2="18"/><line x1="6" x2="18" y1="6" y2="18"/></symbol><symbol xmlns="http://www.w3.org/2000/svg" id="x-circle" fill="none" stroke="currentColor" stroke-linecap="round" stroke-linejoin="round" stroke-width="2" viewBox="0 0 24 24"><circle cx="12" cy="12" r="10"/><line x1="15" x2="9" y1="9" y2="15"/><line x1="9" x2="15" y1="9" y2="15"/></symbol></symbol><symbol xmlns="http://www.w3.org/2000/svg" id="trash" fill="none" stroke="currentColor" stroke-linecap="round" stroke-linejoin="round" stroke-width="2" viewBox="0 0 24 24"><polyline points="3 6 5 6 21 6"/><path d="M19 6v14a2 2 0 0 1-2 2H7a2 2 0 0 1-2-2V6m3 0V4a2 2 0 0 1 2-2h4a2 2 0 0 1 2 2v2"/><line x1="10" x2="10" y1="11" y2="17"/><line x1="14" x2="14" y1="11" y2="17"/></symbol><symbol xmlns="http://www.w3.org/2000/svg" id="x" fill="none" stroke="currentColor" stroke-linecap="round" stroke-linejoin="round" stroke-width="2" viewBox="0 0 24 24"><line x1="18" x2="6" y1="6" y2="18"/><line x1="6" x2="18" y1="6" y2="18"/></symbol><symbol xmlns="http://www.w3.org/2000/svg" id="x-circle" fill="none" stroke="currentColor" stroke-linecap="round" stroke-linejoin="round" stroke-width="2" viewBox="0 0 24 24"><circle cx="12" cy="12" r="10"/><line x1="15" x2="9" y1="9" y2="15"/><line x1="9" x2="15" y1="9" y2="15"/></symbol></svg>